<svg width="553" height="74" viewBox="0 0 553 74" fill="none" xmlns="http://www.w3.org/2000/svg">
<path d="M0.0160005 73V1.672C0.720001 1.672 1.408 1.672 2.08 1.672C2.784 1.672 3.472 1.672 4.144 1.672C4.816 1.672 5.488 1.672 6.16 1.672C7.504 1.672 9.2 1.608 11.248 1.47999C13.296 1.352 15.488 1.224 17.824 1.096C20.16 0.967997 22.416 0.903996 24.592 0.903996C36.464 0.903996 45.2 3.928 50.8 9.976C56.4 16.024 59.2 24.504 59.2 35.416C59.2 43.544 57.776 50.488 54.928 56.248C52.08 61.976 47.984 66.344 42.64 69.352C37.328 72.36 30.944 73.832 23.488 73.768C20.416 73.704 17.328 73.56 14.224 73.336C11.12 73.112 8.24 73 5.584 73C4.976 73 4.352 73 3.712 73C3.104 73 2.48 73 1.84 73C1.232 73 0.624 73 0.0160005 73ZM15.088 61.816C16.304 62.136 17.792 62.36 19.552 62.488C21.312 62.616 23.056 62.664 24.784 62.632C28.528 62.6 31.808 61.688 34.624 59.896C37.44 58.104 39.632 55.336 41.2 51.592C42.8 47.816 43.6 42.952 43.6 37C43.6 30.792 42.848 25.848 41.344 22.168C39.84 18.488 37.584 15.848 34.576 14.248C31.568 12.616 27.792 11.8 23.248 11.8C21.776 11.8 20.288 11.864 18.784 11.992C17.28 12.12 16.048 12.28 15.088 12.472V61.816ZM71.1723 73V1.672H114.708V13H86.1483V30.904H107.796V41.992H86.1483V61.432H117.732V73H71.1723ZM147.537 73.336L121.281 1.672H137.265L150.753 42.136L154.209 55.048L157.665 42.136L170.433 1.672H186.321L160.449 73.336H147.537ZM194.36 73V1.672H237.896V13H209.336V30.904H230.984V41.992H209.336V61.432H240.92V73H194.36ZM252.485 73V1.672H267.365V60.952H293.141V73H252.485ZM329.799 73.768C322.951 73.896 317.063 72.44 312.135 69.4C307.207 66.328 303.463 62.008 300.903 56.44C298.343 50.84 297.127 44.328 297.255 36.904C297.415 28.68 298.983 21.944 301.959 16.696C304.935 11.416 308.951 7.496 314.007 4.936C319.063 2.376 324.791 1.032 331.191 0.903996C337.751 0.775997 343.415 2.2 348.183 5.17599C352.983 8.12 356.647 12.344 359.175 17.848C361.735 23.32 362.935 29.784 362.775 37.24C362.615 45.464 361.111 52.264 358.263 57.64C355.415 62.984 351.543 66.984 346.647 69.64C341.751 72.264 336.135 73.64 329.799 73.768ZM330.087 62.728C335.431 62.728 339.671 60.632 342.807 56.44C345.943 52.248 347.511 45.688 347.511 36.76C347.511 32.088 346.887 27.896 345.639 24.184C344.423 20.472 342.583 17.544 340.119 15.4C337.655 13.224 334.567 12.136 330.855 12.136C327.527 12.136 324.471 12.968 321.687 14.632C318.935 16.296 316.727 18.984 315.063 22.696C313.399 26.408 312.567 31.336 312.567 37.48C312.567 42.184 313.223 46.44 314.535 50.248C315.847 54.056 317.799 57.096 320.391 59.368C322.983 61.608 326.215 62.728 330.087 62.728ZM375.016 73V1.672H381.112C384.248 1.672 387.368 1.544 390.472 1.288C393.576 1.032 396.824 0.903996 400.216 0.903996C405.72 0.903996 410.44 1.72 414.376 3.352C418.312 4.952 421.336 7.544 423.448 11.128C425.592 14.712 426.664 19.432 426.664 25.288C426.664 33.448 424.216 39.768 419.32 44.248C414.456 48.728 407.4 50.968 398.152 50.968C396.136 50.968 394.488 50.952 393.208 50.92C391.96 50.888 390.92 50.872 390.088 50.872V73H375.016ZM390.088 39.64C391.304 39.8 392.552 39.912 393.832 39.976C395.144 40.04 396.488 40.072 397.864 40.072C400.424 40.072 402.76 39.64 404.872 38.776C407.016 37.912 408.712 36.408 409.96 34.264C411.24 32.12 411.88 29.112 411.88 25.24C411.88 20.696 410.696 17.224 408.328 14.824C405.96 12.424 402.392 11.304 397.624 11.464C396.408 11.496 395.128 11.56 393.784 11.656C392.44 11.752 391.208 11.912 390.088 12.136V39.64ZM437.641 73V1.672H481.177V13H452.617V30.904H474.265V41.992H452.617V61.432H484.201V73H437.641ZM510.79 73H495.766V1.672C496.406 1.672 497.03 1.672 497.638 1.672C498.278 1.672 498.902 1.672 499.51 1.672C500.15 1.672 500.79 1.672 501.43 1.672C503.862 1.672 506.694 1.544 509.926 1.288C513.158 1.032 517.03 0.903996 521.542 0.903996C524.87 0.903996 528.07 1.272 531.142 2.008C534.214 2.712 536.95 3.896 539.35 5.56C541.782 7.192 543.702 9.4 545.11 12.184C546.518 14.968 547.222 18.424 547.222 22.552C547.222 27.192 546.454 31.048 544.918 34.12C543.382 37.16 541.222 39.544 538.438 41.272C535.686 42.968 532.454 44.104 528.742 44.68C527.462 44.872 526.166 45.064 524.854 45.256C523.542 45.416 521.814 45.56 519.67 45.688C517.526 45.784 514.566 45.832 510.79 45.832V73ZM510.79 35.272C511.462 35.368 512.406 35.448 513.622 35.512C514.838 35.576 516.07 35.608 517.318 35.608C518.598 35.608 519.622 35.608 520.39 35.608C524.454 35.608 527.494 34.472 529.51 32.2C531.558 29.896 532.582 26.808 532.582 22.936C532.582 20.76 532.198 18.824 531.43 17.128C530.694 15.4 529.382 14.056 527.494 13.096C525.606 12.104 522.966 11.608 519.574 11.608C518.07 11.608 516.55 11.688 515.014 11.848C513.478 11.976 512.07 12.184 510.79 12.472V35.272ZM535.462 73C535.046 72.456 534.678 71.848 534.358 71.176C534.07 70.472 533.574 69.352 532.87 67.816C531.878 65.672 530.95 63.352 530.086 60.856C529.254 58.36 528.374 55.976 527.446 53.704C526.518 51.432 525.446 49.544 524.23 48.04C523.014 46.536 521.542 45.72 519.814 45.592L524.038 42.28L533.398 41.656C535.222 42.456 536.822 43.832 538.198 45.784C539.606 47.704 540.886 49.928 542.038 52.456C543.222 54.984 544.374 57.592 545.494 60.28C546.646 62.968 547.878 65.464 549.19 67.768C549.67 68.664 550.15 69.544 550.63 70.408C551.142 71.272 551.638 72.136 552.118 73H535.462Z" fill="white"/>
</svg>
